ply
format ascii 1.0
comment made by anonymous
comment this file is velehrad
element vertex 8
property float32 x
property float32 y
property float32 z
element face 12
property list uint8 int32 vertex_index
end_header
33.0813 13.4115 -9.47339
43.261 14.4345 -15.1605
-94.8194 -6.19676 54.3703
26.4414 13.2338 -5.69394
24.4117 12.8396 -4.1794
-89.6385 -5.19339 51.6254
24.7632 12.9033 -4.40377
26.6812 12.6921 -5.62898
3 5 1 0
3 5 4 0
3 4 0 2
3 4 6 2
3 7 5 4
3 7 6 4
3 3 2 1
3 1 2 0
3 5 7 1
3 7 1 3
3 7 6 3
3 6 3 2